<?xml version="1.0" encoding="UTF-8"?>
<svg xmlns="http://www.w3.org/2000/svg" viewBox="0 0 1300.44 521.75">
  <defs>
    <style>
      .cls-1 {
        fill: #fff;
      }

      .cls-2 {
        mix-blend-mode: multiply;
        opacity: .7;
      }

      .cls-3 {
        isolation: isolate;
      }

      .cls-4 {
        fill: #231815;
      }

      .cls-5 {
        fill: #ffd900;
      }
    </style>
  </defs>
  <g class="cls-3">
    <g id="_圖層_2" data-name="圖層 2">
      <g>
        <g>
          <g class="cls-2">
            <g>
              <path class="cls-4" d="M557.23,279.85l17.26-58.17c.99-2.91,1.89-5.88,2.64-8.89.11-.44.2-.89.31-1.33l.66-2.23c1.62-7.56,2.49-15.4,2.49-23.43,0-61.44-49.98-111.42-111.42-111.42s-111.42,49.98-111.42,111.42,49.98,111.42,111.42,111.42c4.97,0,9.86-.33,14.65-.96l17.31-58.49c-5.33,3.29-11.2,5.78-17.44,7.31l.02-.05c-2.84.7-5.75,1.22-8.72,1.52-.37.03-.73.07-1.1.1-.15.01-.29.02-.44.04-1.41.1-2.83.15-4.27.15-22.07,0-41.45-11.78-52.16-29.38-5.61-9.22-8.84-20.05-8.84-31.61,0-33.64,27.37-61.01,61.01-61.01s61.01,27.37,61.01,61.01c0,2.06-.11,4.09-.31,6.1-.31,3.09-.91,6.09-1.67,9.02-.41,1.58-.86,3.14-1.38,4.66l-.23.77c-.19.53-.38,1.06-.58,1.59l-25.03,84.61s.03,0,.05-.01l-5.79,19.53-15.61,52.6-45.95,154.84h52.45l49.67-167.41,21.45-72.28Z"/>
              <path class="cls-4" d="M646.31,158.82c-.02-.11-.03-.22-.05-.32-.19-1.25-.4-2.49-.62-3.73-.05-.26-.09-.53-.14-.79-.2-1.12-.42-2.23-.64-3.34-.08-.38-.15-.76-.23-1.14-.21-1.01-.43-2.02-.66-3.03-.11-.47-.21-.95-.32-1.42-.22-.93-.45-1.85-.68-2.77-.14-.55-.27-1.1-.41-1.64-.22-.85-.46-1.7-.69-2.55-.17-.61-.33-1.22-.51-1.82-.23-.79-.47-1.57-.7-2.36-.2-.66-.4-1.31-.6-1.97-.23-.73-.47-1.46-.71-2.19-.23-.7-.46-1.41-.71-2.1-.23-.68-.47-1.35-.71-2.02-.27-.74-.53-1.48-.81-2.22-.23-.63-.47-1.25-.71-1.87-.3-.78-.6-1.56-.91-2.33-.23-.58-.47-1.15-.7-1.72-.34-.81-.68-1.63-1.03-2.43-.23-.53-.46-1.05-.69-1.58-.38-.85-.76-1.69-1.14-2.53-.22-.48-.45-.96-.67-1.44-.41-.88-.84-1.75-1.26-2.62-.21-.43-.43-.87-.65-1.3-.46-.91-.92-1.81-1.39-2.71-.2-.39-.41-.77-.61-1.16-.5-.94-1.01-1.88-1.53-2.81-.19-.34-.38-.68-.57-1.01-.55-.97-1.11-1.94-1.68-2.9-.17-.29-.34-.58-.51-.86-.6-1.01-1.22-2.01-1.84-3-.15-.24-.29-.47-.44-.71-.66-1.05-1.33-2.08-2.02-3.12-.12-.18-.23-.36-.35-.54-.73-1.09-1.47-2.17-2.21-3.25-.08-.12-.16-.23-.24-.35-.8-1.14-1.61-2.27-2.44-3.39-.03-.05-.07-.09-.1-.14-32.66-44.24-85.15-73-144.23-73s-114.06,30.13-146.52,76.16l-227.12-5.02c-17.28-.38-32.15,12.15-34.69,29.25l-35.41,237.86h225.2c4.7,0,8.52,3.82,8.52,8.52s-3.82,8.52-8.52,8.52l-227.8.38-7.65,51.37,235.44-1.47c32.42,0,58.8-26.38,58.8-58.8s-26.38-58.8-58.8-58.8l-168.53.17,22.22-149.28c1.34-9.02,9.16-15.64,18.28-15.48l175.32,3.06c-.54,1.76-1.05,3.54-1.55,5.33-.24.87-.48,1.74-.71,2.61-.03.1-.05.2-.07.29-.59,2.28-1.14,4.57-1.64,6.88l-170.75-2.53-19.89,133.58,145.46-.31c44.14,0,76.9,29.62,76.9,73.76s-32.77,76.9-76.9,76.9l-236.23,1.85-8.13,54.58,244.35-3.01c71.86,0,130.32-58.46,130.32-130.32,0-4.18-.22-8.32-.61-12.4,11.77,6.93,24.38,12.57,37.66,16.69.43.14.87.26,1.31.39.95.29,1.89.57,2.85.84.86.25,1.73.48,2.6.71.53.14,1.05.29,1.58.42,1.06.27,2.13.53,3.2.79.34.08.67.16,1.01.24,1.18.28,2.38.54,3.57.79.22.05.44.09.66.14,1.28.26,2.56.51,3.85.75.13.02.26.05.39.07,1.36.25,2.73.48,4.1.69.05,0,.11.02.16.02,2.33.36,4.68.7,7.04.97v-.03c4.97.57,9.98.96,15.06,1.11l14.98-50.64c-3.08.22-6.19.34-9.33.34-71.01,0-128.78-57.77-128.78-128.78,0-71.02,57.77-128.79,128.78-128.79,71.01,0,128.78,57.77,128.78,128.78,0,2.53-.08,5.04-.23,7.54-.58,6.29-1.84,12.52-3.64,18.59l-8.7,29.34c-.06.12-.11.24-.17.35l-21.76,73.53-8.25,27.82-52.4,176.57h55.1l77.04-259.65c6.15-23.01,12.67-44.64,13.33-69.28.05-1.59.08-3.18.08-4.78,0-9.18-.7-18.2-2.04-27.02ZM248.77,222.35l-84.77.42,2.68-18,124.31-.04c.95,9.03,2.58,17.86,4.83,26.44-14.61-5.68-30.46-8.83-47.05-8.83Z"/>
            </g>
            <g>
              <path class="cls-4" d="M729.53,283.26l-6.24,33.83c9.58,3.34,23.69,5.01,42.3,5.02,30.95.42,58.75.29,83.42-.41,3.33-.14,6.12-.28,8.35-.42-5.8,7.52-10.51,15.87-14.14,25.06h-82.11c-27.16-.01-46.54-3.36-58.12-10.04-7.56-4.6-13.48-11-17.76-19.22-4.76,13.09-10.13,24.64-16.12,34.67-5.38-4.46-11.33-8.08-17.85-10.86-.11-.14-.24-.21-.38-.21,10.74-15.59,20.11-43.57,28.11-83.95.49-2.64.98-5.29,1.46-7.94l21.65,1.47c-1.28,6.96-3.35,16.64-6.18,29.03,1.28,9.47,3.9,16.99,7.83,22.56l11.79-63.9h-39.91s4.12-22.35,4.12-22.35h35.78s3.62-19.63,3.62-19.63h-30.81s4.09-22.14,4.09-22.14h30.81s3.97-21.51,3.97-21.51h23.37s-3.97,21.51-3.97,21.51h29.99s-4.09,22.14-4.09,22.14h-29.99s-3.62,19.63-3.62,19.63h33.71s-.96,5.23-.96,5.23c14.66-8.49,25.44-21.72,32.35-39.68h-22.54s3.89-21.1,3.89-21.1h93.27c-.03.15-.64,3.08-1.83,8.78-6.61,29.1-11.89,46.85-15.83,53.25-.97,1.53-1.96,2.79-2.97,3.76-3.89,3.9-9.1,6.34-15.62,7.31-6.33.7-14.22.83-23.65.41,1.14-7.66.46-14.83-2.03-21.51,6.08.7,11.66,1.05,16.77,1.05,2.64-.14,4.85-.9,6.63-2.3,2.68-3.34,6.02-13.22,10.02-29.65h-22.54c-9.85,26.45-25.26,45.73-46.25,57.84-2.94-3.48-6.62-7.1-11.03-10.86l-1.81,9.82h-30.61s-4.32,23.39-4.32,23.39h27.92s-4.05,21.93-4.05,21.93h-27.92ZM763.46,308.95l12.41-67.25h82.72s-12.41,67.26-12.41,67.26h-82.72ZM795.47,262.18l-4.89,26.52h34.33s4.89-26.52,4.89-26.52h-34.33Z"/>
              <path class="cls-4" d="M941.59,282.87l-6.01,32.58c9.96,4.32,25.83,6.48,47.61,6.48,45.22,0,73.94-.2,86.15-.61-5.32,6.4-10.09,14.69-14.31,24.85h-76.52c-27.85-.01-47.83-3.43-59.95-10.25-9.23-5.29-16.21-13.02-20.95-23.18-5.95,15.04-13.14,27.84-21.57,38.42-2.02-4.74-5.47-9.19-10.35-13.37-1.23-.84-2.27-1.53-3.13-2.09,14.11-18.93,24.02-47.61,29.74-86.04l20.86,1.26c-1.38,8.22-2.91,16.5-4.59,24.85,1.39,8.91,3.92,16.5,7.59,22.76l11.33-61.4h-40.95s4.09-22.14,4.09-22.14h36.61s3.31-17.96,3.31-17.96h-29.37s4.12-22.35,4.12-22.35h29.37s4.12-22.34,4.12-22.34h23.16s-4.12,22.35-4.12,22.35h28.54s-4.12,22.35-4.12,22.35h-28.54s-3.31,17.96-3.31,17.96h31.64s-4.09,22.14-4.09,22.14h-27.92s-4.39,23.8-4.39,23.8h25.23s-4.05,21.93-4.05,21.93h-25.23ZM975.24,278.7l17.11-92.72h35.99c2.14-14.61,3.87-25.82,5.17-33.62h23.37c-2.11,11.42-3.97,22.63-5.59,33.63h18.82c-2.09-7.38-6.07-15.31-11.94-23.81l18.61-8.98c7.14,9.89,11.69,18.1,13.65,24.65l-16.6,8.14h17.37s-3.93,21.3-3.93,21.3h-38.67c-1.53,13.5-2.49,26.93-2.89,40.3,7.14-10.3,13.3-20.88,18.47-31.74l18.31,5.01c-10.19,21.58-22.05,40.65-35.58,57.22,1.56,9.47,3.91,14.27,7.06,14.41,2.9,0,6.3-8.77,10.23-26.31.03-.14.05-.28.08-.42,4.41,5.99,9.36,10.17,14.85,12.53-5.41,18.1-11.41,29.31-17.99,33.62-3.77,2.51-8.42,3.76-13.93,3.76-8.66-.14-14.96-5.99-18.89-17.54-8.83,8.22-17.52,14.97-26.07,20.25-2.23-5.85-5.89-11.41-10.98-16.71-.2-.42-.42-.69-.67-.84,11.08-6.26,22.15-15.03,33.19-26.31-1.59-17.54-.9-39.96,2.07-67.25h-15.3s-10.75,58.26-10.75,58.26l16.3-8.77,3.68,18.17c-26.7,16.15-45.27,27.14-55.72,32.99l-6.81-20.26c2.11-.97,5.45-2.64,10.02-5.01,3.5-1.81,6.16-3.13,7.97-3.97Z"/>
            </g>
            <g>
              <path class="cls-4" d="M859.02,437.3l-48.87.13c4.1,27.64,16.64,46.49,37.62,56.56.9.44,1.77.83,2.6,1.18-4.63,3.27-9.39,7.9-14.29,13.91-.38.53-.69.97-.94,1.32-20.66-10.34-34.01-28.75-40.06-55.24-.13-.7-.27-1.36-.41-1.98-14.01,26.19-35.14,45.4-63.4,57.62-2.01-5.28-5.08-9.72-9.23-13.32-.16-.09-.28-.18-.35-.26,29.45-11.88,50.22-31.79,62.33-59.73l-47.79.13,3.34-16.65,50.5-.13c2.03-6.52,4.89-18.55,8.6-36.08l18.14-.05c-3.17,14.89-6.17,26.92-9,36.08l54.56-.14-3.34,16.65Z"/>
              <path class="cls-4" d="M1001.01,451.85l-3.29,16.39-28.84.08-8.49,42.29-17.6.05,8.49-42.29-33.3.09c-7.83,18.78-20.16,33.25-37,43.42-2.78-4.13-6.35-7.69-10.71-10.67-.64-.44-1.2-.79-1.68-1.05,14.1-8.23,24.38-18.77,30.85-31.65l-26.26.07,3.29-16.39,29.38-.08c1.32-4.76,2.57-10.09,3.75-15.99l1.99-9.91-25.86.07,3.26-16.25,25.86-.07,5.04-25.11,17.46-.05-5.04,25.11,30.73-.08,5.1-25.37,17.6-.05-5.1,25.37,25.18-.07-3.26,16.25-25.18.07-5.2,25.9,28.84-.08ZM923.43,452.05l31.14-.08,5.2-25.9-30.73.08-2.02,10.04c-1.06,5.29-2.26,10.57-3.59,15.86Z"/>
              <path class="cls-4" d="M1140.79,475.39l-2.95,14.67-54.69.14-4.01,19.95-17.19.05,4.01-19.95-53.48.14,2.95-14.67,53.48-.14,1.59-7.93-39.8.11,10.75-53.52,38.58-.1,6.08-30.26,17.19-.05-1.83,9.12,49.82-.13-2.73,13.61-49.82.13-1.51,7.53,43.05-.11-10.75,53.52-41.83.11-1.59,7.93,54.69-.14ZM1051.24,446.96l-1.59,7.93,65.26-.17,1.59-7.93-65.26.17ZM1055.27,426.87l-1.62,8.06,65.26-.17,1.62-8.06-65.26.17Z"/>
              <path class="cls-4" d="M1201.89,466.24l-4.14,20.62c6.49,2.71,16.87,4.05,31.13,4.01,29.6-.08,48.4-.26,56.4-.54-3.52,4.06-6.7,9.31-9.52,15.74l-50.09.13c-18.23.05-31.29-2.08-39.18-6.37-6.01-3.33-10.53-8.2-13.57-14.63-3.99,9.52-8.77,17.63-14.36,24.34-1.29-2.99-3.53-5.8-6.7-8.44-.8-.53-1.48-.97-2.04-1.32,9.35-12,16.02-30.16,20-54.47l13.65.76c-.95,5.2-2.01,10.44-3.16,15.73.85,5.63,2.46,10.43,4.82,14.38l7.8-38.85-26.81.07,2.81-14.01,23.96-.06,2.28-11.36-19.23.05,2.84-14.14,19.23-.05,2.84-14.14,15.16-.04-2.84,14.14,18.68-.05-2.84,14.14-18.68.05-2.28,11.36,20.71-.05-2.81,14.01-18.28.05-3.03,15.06,16.52-.04-2.79,13.88-16.52.04ZM1223.94,463.54l11.78-58.67,23.56-.06c1.5-9.25,2.69-16.34,3.59-21.27l15.3-.04c-1.45,7.22-2.74,14.32-3.87,21.28l12.32-.03c-1.32-4.66-3.88-9.68-7.67-15.04l12.24-5.71c4.61,6.24,7.54,11.43,8.78,15.56l-10.92,5.18,11.37-.03-2.71,13.48-25.32.07c-1.09,8.55-1.8,17.04-2.14,25.5,4.74-6.53,8.83-13.23,12.29-20.11l11.95,3.14c-6.8,13.67-14.69,25.75-23.65,36.25.96,5.99,2.47,9.02,4.53,9.1,1.9,0,4.18-5.56,6.86-16.66.02-.09.04-.18.05-.26,2.85,3.78,6.06,6.41,9.64,7.9-3.65,11.46-7.65,18.56-11.99,21.3-2.48,1.59-5.53,2.39-9.14,2.4-5.67-.07-9.76-3.76-12.26-11.06-5.83,5.21-11.56,9.5-17.2,12.86-1.42-3.69-3.78-7.21-7.08-10.55-.13-.26-.27-.44-.44-.53,7.29-3.98,14.59-9.55,21.89-16.7-.93-11.09-.34-25.27,1.78-42.53l-10.02.03-7.4,36.87,10.73-5.58,2.3,11.48c-17.58,10.26-29.81,17.25-36.69,20.97l-4.33-12.8c1.39-.62,3.59-1.68,6.59-3.19,2.3-1.15,4.05-1.99,5.24-2.52Z"/>
            </g>
          </g>
          <g>
            <g>
              <path class="cls-1" d="M552.82,273.23l17.26-58.17c.99-2.91,1.89-5.88,2.64-8.89.11-.44.2-.89.31-1.33l.66-2.23c1.62-7.56,2.49-15.4,2.49-23.43,0-61.44-49.98-111.42-111.42-111.42s-111.42,49.98-111.42,111.42,49.98,111.42,111.42,111.42c4.97,0,9.86-.33,14.65-.96l17.31-58.49c-5.33,3.29-11.2,5.78-17.44,7.31l.02-.05c-2.84.7-5.75,1.22-8.72,1.52-.37.03-.73.07-1.1.1-.15.01-.29.02-.44.04-1.41.1-2.83.15-4.27.15-22.07,0-41.45-11.78-52.16-29.38-5.61-9.22-8.84-20.05-8.84-31.61,0-33.64,27.37-61.01,61.01-61.01s61.01,27.37,61.01,61.01c0,2.06-.11,4.09-.31,6.1-.31,3.09-.91,6.09-1.67,9.02-.41,1.58-.86,3.14-1.38,4.66l-.23.77c-.19.53-.38,1.06-.58,1.59l-25.03,84.61s.03,0,.05-.01l-5.79,19.53-15.61,52.6-45.95,154.84h52.45l49.67-167.41,21.45-72.28Z"/>
              <path class="cls-1" d="M641.9,152.2c-.02-.11-.03-.22-.05-.32-.19-1.25-.4-2.49-.62-3.73-.05-.26-.09-.53-.14-.79-.2-1.12-.42-2.23-.64-3.34-.08-.38-.15-.76-.23-1.14-.21-1.01-.43-2.02-.66-3.03-.11-.47-.21-.95-.32-1.42-.22-.93-.45-1.85-.68-2.77-.14-.55-.27-1.1-.41-1.64-.22-.85-.46-1.7-.69-2.55-.17-.61-.33-1.22-.51-1.82-.23-.79-.47-1.57-.7-2.36-.2-.66-.4-1.31-.6-1.97-.23-.73-.47-1.46-.71-2.19-.23-.7-.46-1.41-.71-2.1-.23-.68-.47-1.35-.71-2.02-.27-.74-.53-1.48-.81-2.22-.23-.63-.47-1.25-.71-1.87-.3-.78-.6-1.56-.91-2.33-.23-.58-.47-1.15-.7-1.72-.34-.81-.68-1.63-1.03-2.43-.23-.53-.46-1.05-.69-1.58-.38-.85-.76-1.69-1.14-2.53-.22-.48-.45-.96-.67-1.44-.41-.88-.84-1.75-1.26-2.62-.21-.43-.43-.87-.65-1.3-.46-.91-.92-1.81-1.39-2.71-.2-.39-.41-.77-.61-1.16-.5-.94-1.01-1.88-1.53-2.81-.19-.34-.38-.68-.57-1.01-.55-.97-1.11-1.94-1.68-2.9-.17-.29-.34-.58-.51-.86-.6-1.01-1.22-2.01-1.84-3-.15-.24-.29-.47-.44-.71-.66-1.05-1.33-2.08-2.02-3.12-.12-.18-.23-.36-.35-.54-.73-1.09-1.47-2.17-2.21-3.25-.08-.12-.16-.23-.24-.35-.8-1.14-1.61-2.27-2.44-3.39-.03-.05-.07-.09-.1-.14C576.32,28.75,523.84,0,464.75,0s-114.06,30.13-146.52,76.16l-218.16-4.82c-22.4-.5-41.67,15.75-44.97,37.91l-34.09,229h225.2c4.7,0,8.52,3.82,8.52,8.52s-3.82,8.52-8.52,8.52l-227.8.38-7.65,51.37,235.44-1.47c32.42,0,58.8-26.38,58.8-58.8s-26.38-58.8-58.8-58.8l-168.53.17,22.22-149.29c1.34-9.01,9.16-15.63,18.27-15.47l175.33,3.06c-.54,1.76-1.05,3.54-1.55,5.33-.24.87-.48,1.74-.71,2.61-.03.1-.05.2-.07.29-.59,2.28-1.14,4.57-1.64,6.88l-153.77-2.28c-9.72-.14-18.05,6.93-19.48,16.55l-17.39,116.78,145.46-.31c44.14,0,76.9,29.62,76.9,73.76s-32.77,76.9-76.9,76.9l-236.23,1.85L0,479.38l244.35-3.01c71.86,0,130.32-58.46,130.32-130.32,0-4.18-.22-8.32-.61-12.4,11.77,6.93,24.38,12.57,37.66,16.69.43.14.87.26,1.31.39.95.29,1.89.57,2.85.84.86.25,1.73.48,2.6.71.53.14,1.05.29,1.58.42,1.06.27,2.13.53,3.2.79.34.08.67.16,1.01.24,1.18.28,2.38.54,3.57.79.22.05.44.09.66.14,1.28.26,2.56.51,3.85.75.13.02.26.05.39.07,1.36.25,2.73.48,4.1.69.05,0,.11.02.16.02,2.33.36,4.68.7,7.04.97v-.03c4.97.57,9.98.96,15.06,1.11l14.98-50.64c-3.08.22-6.19.34-9.33.34-71.01,0-128.78-57.77-128.78-128.78,0-71.02,57.77-128.79,128.79-128.79,71.01,0,128.78,57.77,128.78,128.78,0,2.53-.08,5.04-.23,7.54-.58,6.29-1.84,12.52-3.64,18.59l-8.7,29.34c-.06.12-.11.24-.17.35l-21.76,73.53-8.25,27.82-52.4,176.57h55.1l77.04-259.65c6.15-23.01,12.67-44.64,13.33-69.28.05-1.59.08-3.18.08-4.78,0-9.18-.7-18.2-2.04-27.02ZM244.35,215.73l-84.77.42,2.68-18,124.31-.04c.95,9.03,2.58,17.86,4.83,26.44-14.61-5.68-30.46-8.83-47.05-8.83Z"/>
            </g>
            <g>
              <path class="cls-1" d="M725.12,276.64l-6.24,33.83c9.58,3.34,23.69,5.01,42.3,5.02,30.95.42,58.75.29,83.42-.41,3.33-.14,6.12-.28,8.35-.42-5.8,7.52-10.51,15.87-14.14,25.06h-82.11c-27.16-.01-46.54-3.36-58.12-10.04-7.56-4.6-13.48-11-17.76-19.22-4.76,13.09-10.13,24.64-16.12,34.67-5.38-4.46-11.33-8.08-17.85-10.86-.11-.14-.24-.21-.38-.21,10.74-15.59,20.11-43.57,28.11-83.95.49-2.64.98-5.29,1.46-7.94l21.65,1.47c-1.28,6.96-3.35,16.64-6.18,29.03,1.28,9.47,3.9,16.99,7.83,22.56l11.79-63.9h-39.91s4.12-22.35,4.12-22.35h35.78s3.62-19.63,3.62-19.63h-30.81s4.09-22.14,4.09-22.14h30.81s3.97-21.51,3.97-21.51h23.37s-3.97,21.51-3.97,21.51h29.99s-4.09,22.14-4.09,22.14h-29.99s-3.62,19.63-3.62,19.63h33.71s-.96,5.23-.96,5.23c14.66-8.49,25.44-21.72,32.35-39.68h-22.54s3.89-21.1,3.89-21.1h93.27c-.03.15-.64,3.08-1.83,8.78-6.61,29.1-11.89,46.85-15.83,53.25-.97,1.53-1.96,2.79-2.97,3.76-3.89,3.9-9.1,6.34-15.62,7.31-6.33.7-14.22.83-23.65.41,1.14-7.66.46-14.83-2.03-21.51,6.08.7,11.66,1.05,16.77,1.05,2.64-.14,4.85-.9,6.63-2.3,2.68-3.34,6.02-13.22,10.02-29.65h-22.54c-9.85,26.45-25.26,45.73-46.25,57.84-2.94-3.48-6.62-7.1-11.03-10.86l-1.81,9.82h-30.61s-4.32,23.39-4.32,23.39h27.92s-4.05,21.93-4.05,21.93h-27.92ZM759.05,302.34l12.41-67.25h82.72s-12.41,67.26-12.41,67.26h-82.72ZM791.06,255.56l-4.89,26.52h34.33s4.89-26.52,4.89-26.52h-34.33Z"/>
              <path class="cls-1" d="M937.18,276.25l-6.01,32.58c9.96,4.32,25.83,6.48,47.61,6.48,45.22,0,73.94-.2,86.15-.61-5.32,6.4-10.09,14.69-14.31,24.85h-76.52c-27.85-.01-47.83-3.43-59.95-10.25-9.23-5.29-16.21-13.02-20.95-23.18-5.95,15.04-13.14,27.84-21.57,38.42-2.02-4.74-5.47-9.19-10.35-13.37-1.23-.84-2.27-1.53-3.13-2.09,14.11-18.93,24.02-47.61,29.74-86.04l20.86,1.26c-1.38,8.22-2.91,16.5-4.59,24.85,1.39,8.91,3.92,16.5,7.59,22.76l11.33-61.4h-40.95s4.09-22.14,4.09-22.14h36.61s3.31-17.96,3.31-17.96h-29.37s4.12-22.35,4.12-22.35h29.37s4.12-22.34,4.12-22.34h23.16s-4.12,22.35-4.12,22.35h28.54s-4.12,22.35-4.12,22.35h-28.54s-3.31,17.96-3.31,17.96h31.64s-4.09,22.14-4.09,22.14h-27.92s-4.39,23.8-4.39,23.8h25.23s-4.05,21.93-4.05,21.93h-25.23ZM970.83,272.08l17.11-92.72h35.99c2.14-14.61,3.87-25.82,5.17-33.62h23.37c-2.11,11.42-3.97,22.63-5.59,33.63h18.82c-2.09-7.38-6.07-15.31-11.94-23.81l18.61-8.98c7.14,9.89,11.69,18.1,13.65,24.65l-16.6,8.14h17.37s-3.93,21.3-3.93,21.3h-38.67c-1.53,13.5-2.49,26.93-2.89,40.3,7.14-10.3,13.3-20.88,18.47-31.74l18.31,5.01c-10.19,21.58-22.05,40.65-35.58,57.22,1.56,9.47,3.91,14.27,7.06,14.41,2.9,0,6.3-8.77,10.23-26.31.03-.14.05-.28.08-.42,4.41,5.99,9.36,10.17,14.85,12.53-5.41,18.1-11.41,29.31-17.99,33.62-3.77,2.51-8.42,3.76-13.93,3.76-8.66-.14-14.96-5.99-18.89-17.54-8.83,8.22-17.52,14.97-26.07,20.25-2.23-5.85-5.89-11.41-10.98-16.71-.2-.42-.42-.69-.67-.84,11.08-6.26,22.15-15.03,33.19-26.31-1.59-17.54-.9-39.96,2.07-67.25h-15.3s-10.75,58.26-10.75,58.26l16.3-8.77,3.68,18.17c-26.7,16.15-45.27,27.14-55.72,32.99l-6.81-20.26c2.11-.97,5.45-2.64,10.02-5.01,3.5-1.81,6.16-3.13,7.97-3.97Z"/>
            </g>
            <g>
              <path class="cls-5" d="M854.6,430.68l-48.87.13c4.1,27.64,16.64,46.49,37.62,56.56.9.44,1.77.83,2.6,1.18-4.63,3.27-9.39,7.9-14.29,13.91-.38.53-.69.97-.94,1.32-20.66-10.34-34.01-28.75-40.06-55.24-.13-.7-.27-1.36-.41-1.98-14.01,26.19-35.14,45.4-63.4,57.62-2.01-5.28-5.08-9.72-9.23-13.32-.16-.09-.28-.18-.35-.26,29.45-11.88,50.22-31.79,62.33-59.73l-47.79.13,3.34-16.65,50.5-.13c2.03-6.52,4.89-18.55,8.6-36.08l18.14-.05c-3.17,14.89-6.17,26.92-9,36.08l54.56-.14-3.34,16.65Z"/>
              <path class="cls-5" d="M996.6,445.23l-3.29,16.39-28.84.08-8.49,42.29-17.6.05,8.49-42.29-33.3.09c-7.83,18.78-20.16,33.25-37,43.42-2.78-4.13-6.35-7.69-10.71-10.67-.64-.44-1.2-.79-1.68-1.05,14.1-8.23,24.38-18.77,30.85-31.65l-26.26.07,3.29-16.39,29.38-.08c1.32-4.76,2.57-10.09,3.75-15.99l1.99-9.91-25.86.07,3.26-16.25,25.86-.07,5.04-25.11,17.46-.05-5.04,25.11,30.73-.08,5.1-25.37,17.6-.05-5.1,25.37,25.18-.07-3.26,16.25-25.18.07-5.2,25.9,28.84-.08ZM919.02,445.43l31.14-.08,5.2-25.9-30.73.08-2.02,10.04c-1.06,5.29-2.26,10.57-3.59,15.86Z"/>
              <path class="cls-5" d="M1136.38,468.77l-2.95,14.67-54.69.14-4.01,19.95-17.19.05,4.01-19.95-53.48.14,2.95-14.67,53.48-.14,1.59-7.93-39.8.11,10.75-53.52,38.58-.1,6.08-30.26,17.19-.05-1.83,9.12,49.82-.13-2.73,13.61-49.82.13-1.51,7.53,43.05-.11-10.75,53.52-41.83.11-1.59,7.93,54.69-.14ZM1046.83,440.34l-1.59,7.93,65.26-.17,1.59-7.93-65.26.17ZM1050.86,420.26l-1.62,8.06,65.26-.17,1.62-8.06-65.26.17Z"/>
              <path class="cls-5" d="M1197.48,459.63l-4.14,20.62c6.49,2.71,16.87,4.05,31.13,4.01,29.6-.08,48.4-.26,56.4-.54-3.52,4.06-6.7,9.31-9.52,15.74l-50.09.13c-18.23.05-31.29-2.08-39.18-6.37-6.01-3.33-10.53-8.2-13.57-14.63-3.99,9.52-8.77,17.63-14.36,24.34-1.29-2.99-3.53-5.8-6.7-8.44-.8-.53-1.48-.97-2.04-1.32,9.35-12,16.02-30.16,20-54.47l13.65.76c-.95,5.2-2.01,10.44-3.16,15.73.85,5.63,2.46,10.43,4.82,14.38l7.8-38.85-26.81.07,2.81-14.01,23.96-.06,2.28-11.36-19.23.05,2.84-14.14,19.23-.05,2.84-14.14,15.16-.04-2.84,14.14,18.68-.05-2.84,14.14-18.68.05-2.28,11.36,20.71-.05-2.81,14.01-18.28.05-3.03,15.06,16.52-.04-2.79,13.88-16.52.04ZM1219.53,456.93l11.78-58.67,23.56-.06c1.5-9.25,2.69-16.34,3.59-21.27l15.3-.04c-1.45,7.22-2.74,14.32-3.87,21.28l12.32-.03c-1.32-4.66-3.88-9.68-7.67-15.04l12.24-5.71c4.61,6.24,7.54,11.43,8.78,15.56l-10.92,5.18,11.37-.03-2.71,13.48-25.32.07c-1.09,8.55-1.8,17.04-2.14,25.5,4.74-6.53,8.83-13.23,12.29-20.11l11.95,3.14c-6.8,13.67-14.69,25.75-23.65,36.25.96,5.99,2.47,9.02,4.53,9.1,1.9,0,4.18-5.56,6.86-16.66.02-.09.04-.18.05-.26,2.85,3.78,6.06,6.41,9.64,7.9-3.65,11.46-7.65,18.56-11.99,21.3-2.48,1.59-5.53,2.39-9.14,2.4-5.67-.07-9.76-3.76-12.26-11.06-5.83,5.21-11.56,9.5-17.2,12.86-1.42-3.69-3.78-7.21-7.08-10.55-.13-.26-.27-.44-.44-.53,7.29-3.98,14.59-9.55,21.89-16.7-.93-11.09-.34-25.27,1.78-42.53l-10.02.03-7.4,36.87,10.73-5.58,2.3,11.48c-17.58,10.26-29.81,17.25-36.69,20.97l-4.33-12.8c1.39-.62,3.59-1.68,6.59-3.19,2.3-1.15,4.05-1.99,5.24-2.52Z"/>
            </g>
          </g>
        </g>
        <path class="cls-1" d="M1101.83,166.48c-2.52-8.39-7.78-18.06-16.07-29.56-4.69-6.5-13.33-8.68-20.55-5.21l-2.39,1.16-.49-.36c-2.83-2.11-6.33-3.27-9.86-3.27h-23.37c-8.1,0-14.94,5.79-16.28,13.78-.84,5.03-1.82,11.24-3,18.99l-.13.85h-12.07s-.25-.65-.25-.65c-.65-1.71-1.57-3.29-2.74-4.69-3.14-3.78-7.77-5.94-12.68-5.95h-8.72s.53-2.85.53-2.85c.89-4.83-.4-9.77-3.54-13.55s-7.77-5.95-12.68-5.95h-23.16c-7.96,0-14.78,5.68-16.23,13.5l-1.63,8.84h-15.63c-3.05,0-6.05.85-8.66,2.47l-1.5.93-.03-1.76c-.06-3.76-1.4-7.42-3.78-10.29-3.14-3.79-7.77-5.97-12.7-5.97h-93.27c-7.71-.01-14.49,5.45-16.13,12.98l-.17.79h-2.62l.37-2.02c.89-4.83-.4-9.77-3.54-13.55-3.14-3.78-7.77-5.94-12.68-5.95h-23.37c-7.96,0-14.78,5.68-16.23,13.5l-1.48,8h-17.08c-7.96,0-14.78,5.68-16.23,13.5l-1.97-.36c1.62-8.77,9.27-15.14,18.19-15.14h15.42s1.17-6.36,1.17-6.36c1.62-8.77,9.27-15.14,18.19-15.14h23.37c5.51,0,10.69,2.43,14.22,6.67,2.58,3.1,4.04,6.89,4.26,10.82,3.17-5.86,9.4-9.75,16.29-9.75h93.27c5.52.01,10.71,2.45,14.24,6.7,2.33,2.81,3.77,6.27,4.15,9.9,2.57-1.29,5.4-1.97,8.28-1.97h13.97s1.33-7.2,1.33-7.2c1.62-8.77,9.27-15.14,18.19-15.14h23.16c5.51,0,10.69,2.43,14.22,6.67,3.53,4.24,4.97,9.77,3.97,15.19l-.09.49h6.31c5.51,0,10.69,2.43,14.22,6.67,1.16,1.4,2.11,2.95,2.81,4.61h8.99c1.12-7.37,2.06-13.32,2.87-18.17,1.5-8.95,9.17-15.45,18.25-15.45h23.37c3.75,0,7.47,1.17,10.55,3.31l1.31-.63c8.09-3.9,17.78-1.45,23.04,5.84,8.43,11.68,13.78,21.54,16.37,30.15l-1.92.58Z"/>
        <path class="cls-1" d="M876.57,521.75c-5.51,0-10.63-2.73-13.7-7.29-1.62-2.4-3.69-4.45-6.33-6.26-.15-.1-.24-.16-.31-.21-1.53-.83-2.93-1.92-4.14-3.23-2.34,2.08-4.8,4.69-7.33,7.76l-.58.82c-4.75,6.68-13.51,8.87-20.84,5.2-16.23-8.12-28.92-20.39-37.73-36.49-13.99,15.81-31.55,28.35-52.2,37.28-4.12,1.78-8.84,1.8-12.97.06-4.13-1.74-7.41-5.15-9-9.33l1.87-.71c1.4,3.68,4.28,6.67,7.91,8.2,3.63,1.53,7.78,1.51,11.4-.05,20.85-9.02,38.49-21.75,52.43-37.84l.96-1.1.68,1.29c8.64,16.35,21.27,28.77,37.54,36.91,6.44,3.22,14.14,1.3,18.31-4.57l.62-.88c2.92-3.55,5.72-6.46,8.36-8.72l.78-.66.65.79c1.19,1.46,2.63,2.65,4.28,3.55.15.09.26.16.44.29,2.85,1.95,5.1,4.17,6.86,6.79,2.7,4.01,7.2,6.41,12.04,6.41h0c2.63,0,5.22-.72,7.48-2.09,16.5-9.96,29.43-23.7,38.45-40.82l.28-.53,6.36-.02-5,24.89c-.86,4.29.24,8.68,3.01,12.06,2.76,3.37,6.85,5.3,11.21,5.3l17.64-.05c6.86-.02,12.83-4.92,14.18-11.65l6.16-30.67,18.47-.09-.97,4.84c-.86,4.29.24,8.68,3.01,12.06,2.76,3.37,6.85,5.3,11.21,5.3l35.77-.09-.51,2.55c-.86,4.29.24,8.68,3.01,12.06,2.76,3.37,6.85,5.3,11.21,5.3l17.23-.05c6.86-.02,12.83-4.92,14.18-11.64l1.68-8.34,41.08-.11.25.63c1.15,2.88,3.15,5.27,5.77,6.91.27.17.58.37.92.59l.13.1c1.38,1.25,1.89,2.12,2.06,2.53,1.99,4.59,6.29,7.88,11.24,8.59.68.1,1.38.15,2.07.15,4.32,0,8.38-1.9,11.14-5.22,1.98-2.38,3.91-4.95,5.71-7.63l.55-.81.82.53c.87.56,1.77,1.09,2.68,1.6l-.38.93.48-.88c10.05,5.47,25.03,8.13,45.77,8.13h.38l50.09-.13c5.74-.02,10.94-3.42,13.24-8.67l1.83.8c-2.62,5.98-8.54,9.85-15.07,9.87l-50.09.13h-.38c-21.08,0-36.37-2.74-46.72-8.38l-.11-.06c-.66-.37-1.32-.75-1.96-1.15-1.68,2.45-3.46,4.79-5.29,6.99-3.14,3.78-7.76,5.94-12.68,5.94-.79,0-1.58-.06-2.35-.17-5.63-.81-10.53-4.56-12.79-9.78-.03-.07-.33-.7-1.51-1.79-.3-.2-.58-.37-.82-.53-2.79-1.74-4.96-4.23-6.3-7.23l-38.1.1-1.35,6.74c-1.54,7.66-8.32,13.23-16.13,13.25l-17.19.05c-5,0-9.65-2.2-12.79-6.03-3.16-3.84-4.41-8.85-3.43-13.72l.03-.15-33.28.09c-5,0-9.65-2.2-12.79-6.03-3.16-3.84-4.41-8.84-3.43-13.72l.48-2.4-14.38.04-5.84,29.07c-1.54,7.66-8.32,13.23-16.13,13.25l-17.6.05c-5,0-9.65-2.2-12.79-6.03-3.16-3.84-4.41-8.84-3.43-13.72l4.51-22.49h-2.71c-9.18,17.21-22.27,31.03-38.91,41.08-2.58,1.56-5.52,2.38-8.52,2.38h0Z"/>
      </g>
    </g>
  </g>
</svg>